<?xml version="1.0" standalone="no"?><!DOCTYPE svg PUBLIC "-//W3C//DTD SVG 1.1//EN" "http://www.w3.org/Graphics/SVG/1.1/DTD/svg11.dtd"><svg t="1701761600330" class="icon" viewBox="0 0 1024 1024" version="1.1" xmlns="http://www.w3.org/2000/svg" p-id="9632" xmlns:xlink="http://www.w3.org/1999/xlink" width="64" height="64"><path d="M770.566988 566.2435a342.310694 342.310694 0 1 0-517.805521 0A391.530562 391.530562 0 0 0 46.655714 910.743481a113.373802 113.373802 0 0 0 113.139236 113.17833h703.699461a113.373802 113.373802 0 0 0 113.139236-113.17833 391.686939 391.686939 0 0 0-206.066659-344.499981zM511.840152 78.931623a264.121865 264.121865 0 1 1-264.121864 264.08277 264.395526 264.395526 0 0 1 264.121864-264.08277z m351.849731 866.840454h-703.699461a35.184973 35.184973 0 0 1-34.950407-34.989502 312.755316 312.755316 0 0 1 191.210782-287.265758 340.355973 340.355973 0 0 0 391.178711 0 312.755316 312.755316 0 0 1 191.210782 287.265758 35.184973 35.184973 0 0 1-34.950407 34.989502z" fill="#231815" p-id="9633"></path><path d="M511.840152 881.852709a39.094415 39.094415 0 0 1-39.094414-39.094415v-60.948192a39.094415 39.094415 0 0 1 78.188829 0v60.948192a39.094415 39.094415 0 0 1-39.094415 39.094415z" fill="#38BDFE" p-id="9634"></path></svg>